<svg width="36" height="25" viewBox="0 0 36 25" fill="none" xmlns="http://www.w3.org/2000/svg">
<path d="M29.025 9.81C28.005 4.635 23.46 0.75 18 0.75C13.665 0.75 9.9 3.21 8.025 6.81C3.51 7.29 0 11.115 0 15.75C0 20.715 4.035 24.75 9 24.75H28.5C32.64 24.75 36 21.39 36 17.25C36 13.29 32.925 10.08 29.025 9.81ZM28.5 21.75H9C5.685 21.75 3 19.065 3 15.75C3 12.675 5.295 10.11 8.34 9.795L9.945 9.63L10.695 8.205C12.12 5.46 14.91 3.75 18 3.75C21.93 3.75 25.32 6.54 26.085 10.395L26.535 12.645L28.83 12.81C31.17 12.96 33 14.925 33 17.25C33 19.725 30.975 21.75 28.5 21.75ZM12 14.25H15.825V18.75H20.175V14.25H24L18 8.25L12 14.25Z" fill="#FF0045"/>
</svg>
